<?xml version="1.0" encoding="utf-8"?>
<!-- Generator: Adobe Illustrator 21.1.0, SVG Export Plug-In . SVG Version: 6.00 Build 0)  -->
<svg version="1.1" xmlns="http://www.w3.org/2000/svg" xmlns:xlink="http://www.w3.org/1999/xlink" x="0px" y="0px"
	 viewBox="0 0 180 180" style="enable-background:new 0 0 180 180;" xml:space="preserve">
<style type="text/css">
	.st0{display:none;}
	.st1{display:inline;}
	.st2{fill:#B07156;}
	.st3{fill:#F1D302;}
	.st4{fill:#070707;}
</style>
<g id="Layer_1" class="st0">
	<g class="st1">
		<path class="st2" d="M141.6,90.7c5.1,0,10.4-1,14.8-3.5c4.5-2.5,8.1-6.7,9.5-11.6c1.5-5.6,0.1-11.6-1.8-17.1
			c-0.9-2.5-1.9-5-3.5-7.1c-3.1-4-8.2-6.1-13.3-6.2c-5.1-0.1-10,1.6-14.4,4c5.1-7.9,6.3-18.5,2.2-27S121.6,7.8,112.3,8.8
			c-11.6,1.2-20.6,12.4-21.8,24c1-9.4-7.2-18.4-16.6-19.7s-18.9,4-24.2,11.9S43.1,43,44.3,52.4l-2.2,1.1c-4,1.8-7.6,4.4-10.8,7.5
			c-16.5,15.5-22.6,41.5-13.6,62.3c7,16.1,22,27.9,38.8,32.9c16.8,5,35.1,3.5,51.6-2.3c8.4-2.9,16.5-7,22.7-13.4
			c6.2-6.5,10-15,11.5-23.9c1.5-8.8,0.6-18-1.7-26.7L141.6,90.7z"/>
	</g>
	<g class="st1">
		<path class="st3" d="M127,80.7c5.4,2.9,12.5,2.2,17.3-1.8c4.7-3.9,6.7-10.8,4.9-16.7c-0.5-1.5-1.2-2.9-2.2-4
			c-1.9-2.1-4.9-2.9-7.7-2.7c-2.8,0.2-5.5,1.5-7.8,3.1c-3.7,2.6-6.7,6.1-8.6,10.2c-1.2,2.4-2.1,1.9-1.4,4.5S124.3,81,127,80.7"/>
	</g>
	<g class="st1">
		<path class="st3" d="M110.2,54.6c4.9-0.8,9-4.3,11.6-8.5s3.6-9.2,3.9-14.1c0.2-4.4-0.4-9.5-4.1-12c-2.4-1.6-5.5-1.7-8.3-0.9
			c-4.8,1.3-8.7,5-11,9.4s-3,9.5-2.7,14.4c0.2,2.5,0.6,5.1,2.1,7.2C103,52.2,107.7,55.2,110.2,54.6"/>
	</g>
	<g class="st1">
		<path class="st3" d="M77,46.3c2.9-5,4.4-10.3,2.2-15.6c-0.7-1.7-1.7-3.3-3-4.6c-3.9-3.7-10.5-3.7-15.1-0.7S54,33.6,53.2,39
			c-0.2,1.5-0.3,3,0,4.5c0.5,2.5,2.1,4.6,3.7,6.6c1.7,2.1,3.5,4.4,6.1,5.1c2.8,0.7,5.7-0.4,8.1-1.9C73.8,51.7,76.4,49.4,77,46.3"/>
	</g>
	<g class="st1">
		<path class="st3" d="M92.2,73.5c-6.9-3.9-15.5-4.3-23.1-2.1S54.8,78.3,49,83.8c-3.8,3.7-7.2,7.8-9.3,12.6
			c-3.8,8.8-2.8,19.4,1.8,27.8s12.4,14.9,21.1,19c4,1.9,8.4,3.3,12.8,3.2c4.1,0,8.1-1.3,11.9-2.7c5.3-2,10.5-4.4,14.4-8.4
			c7.6-7.7,9-19.6,8.6-30.5c-0.3-7.2-1.3-14.6-4.5-21.1C102.6,77.4,102.3,78.3,92.2,73.5"/>
	</g>
</g>
<g id="Layer_2">
	<g>
		<path class="st4" d="M128.8,117.4c5.8-0.4,11.6-2.3,15.9-6.2s6.8-10,5.5-15.7s-6.8-10.3-12.6-9.9c-2,0.2-3.9,0.9-5.8,1.8
			c-7.8,3.9-13.7,11.5-15.6,20.1c-0.8,3.8-0.6,8.4,2.5,10.8C121.5,120.4,125.4,118,128.8,117.4"/>
	</g>
	<g>
		<path class="st4" d="M117.6,80.4c9.9-4.1,14.6-13.6,13.3-24.3c-0.3-2.6-1.3-5.3-3.3-6.9c-2.1-1.6-4.9-1.8-7.5-1.3
			c-6.5,1.4-11.2,6.9-14.1,12.9c-1.6,3.2-2.7,6.7-2.7,10.3s1.5,7.2,4.4,9.3C110.6,82.6,114.9,82.8,117.6,80.4"/>
	</g>
	<g>
		<path class="st4" d="M86.9,56.5c5.1-5.7,7.7-13.5,7.2-21.1c-0.2-3.3-1.3-6.9-4.2-8.5c-2.3-1.3-5.1-1-7.5-0.2
			c-8.4,2.7-14.7,11-14.9,19.9c-0.1,4.4,1.3,9,4.8,11.7C75.7,60.9,84.4,60,86.9,56.5"/>
	</g>
	<g>
		<path class="st4" d="M82,84.6c-8-7.2-18.9-5.2-27.4,1.4S41.6,103.2,39,113.6c-2.5,9.8-3.3,20.9,2.5,29.1
			c5.4,7.5,15.6,10.6,24.6,8.9c9.1-1.7,16.9-7.6,22.5-15c6.1-8,9.9-18,9.1-28S91.1,88.9,82,84.6"/>
	</g>
</g>
</svg>
