<?xml version="1.0" encoding="utf-8"?>
<!-- Generator: Adobe Illustrator 21.1.0, SVG Export Plug-In . SVG Version: 6.00 Build 0)  -->
<svg version="1.1" id="Layer_1" xmlns="http://www.w3.org/2000/svg" xmlns:xlink="http://www.w3.org/1999/xlink" x="0px" y="0px"
	 viewBox="0 0 180 180" style="enable-background:new 0 0 180 180;" xml:space="preserve">
<style type="text/css">
	.st0{fill:#534741;}
	.st1{fill:#B07156;}
	.st2{fill:#F1D302;}
</style>
<g>
	<path class="st0" d="M108.1,124.9c-0.6,0.1-1.2,0.2-1.8,0.3"/>
	<g>
		<path class="st1" d="M107.7,123.5c-0.6,0.1-1.2,0.2-1.8,0.3c-0.8,0.1-1.2,1.1-1,1.8c0.2,0.8,1,1.2,1.8,1c0.6-0.1,1.2-0.2,1.8-0.3
			c0.8-0.1,1.2-1.1,1-1.8C109.3,123.7,108.5,123.4,107.7,123.5L107.7,123.5z"/>
	</g>
</g>
<g>
	<path class="st1" d="M175,88.6c-1.6,5.3-4.4,11.2-8.6,15c-2.2,1.5-17.1,11.1-19.5,12.1c4.8,2.4,0,0,6.2,3.8
		c6.8,3.3,9.6,6.5,4.6,14.5c-5,5-12,11-19,6c-9.5-7.6-20-16.3-30.7-15c-0.6,0.1-1.2,0.2-1.8,0.3c0,0,0,0-0.1,0
		c-9.1,1.6-17.8,5.2-26,9.5c-7.1,3.2-14.3,6.1-21.7,8.7c-3.4,1.2-7.1,2.3-10.4,1.1c-2.2-0.8-4-2.5-5.7-4.1c-2.1-2.1-4.3-4.3-5-7.1
		c-0.8-3.4,0.8-7,3.2-9.5c2.4-2.5,5.6-4.1,8.7-5.7c-0.3-1.7,0.2-4.7-0.8-6.1c-1.9-2.7-3-6-3-9.3l-0.6-0.2c-4.2-0.8-8.4-1.7-12.6-2.8
		C29,99,25.6,98,22.6,96.2c-7.4-4.3-11.4-12.7-13.9-20.8c-2.4-7.7-3.8-16-1.4-23.7c2.4-7.7,9.5-14.3,17.5-13.9
		c5.7,0.3,10.9,4.2,13.9,9c3,4.9,4.1,10.7,4.5,16.4c0.4,5.7,0,11.5,0.3,17.2c0.2,2.8,0.5,5.6,1.6,8.2c1.1,2.6,3.2,4.8,5.8,5.6
		c-0.3-10.3,2.8-22.6,8.5-31.2c2.2-3.2,4.7-6.2,7.8-8.5c5.5-4.1,11.8-5.8,18.4-7.4c10.5-1.7,21-1.9,31.2-1.4l1.3-0.1
		c-1.4-2.9-2.7-6-2.8-9.2c0-3.2,1.6-6.7,4.7-7.8c2.4-0.8,5,0,7.1,1.4c3.5,2.4,5.9,6.5,6.1,10.7c4.7,0.7,13.8,14.2,15,18.8
		c1.8,7.5-1.6,9.4,5.4,14.7c6.4,5.5,11.9,9.9,19.9,12.1c0.7,0.2,1.4,0.5,1.6,1.1C175.2,88,175.1,88.3,175,88.6z"/>
	<g>
		<path class="st1" d="M173.6,88.2c-1.6,4.8-3.8,10.3-7.6,13.8c-1.8,1.6-4.1,2.9-6.2,4.2c-4.4,2.8-8.8,6.1-13.6,8.2
			c-1,0.4-0.9,2.1,0,2.6c3,1.5,5.7,3.3,8.6,5.1c9,5.5-0.5,15.5-7.6,17.8c-5.3,1.7-9.2-2.4-13-5.4c-2.8-2.2-5.7-4.3-8.8-6.1
			c-5.2-3.1-11.1-5.5-17.3-4.9c-14.2,1.5-26.9,9.6-39.9,14.8c-3.3,1.3-6.7,2.6-10.1,3.8c-5.8,2-10.1,1.8-14.7-2.6
			c-3.6-3.5-6.3-7.6-3.4-12.4c2.2-3.7,6.4-5.7,10-7.5c0.4-0.2,0.8-0.8,0.7-1.3c-0.2-1.8,0.1-3.9-0.5-5.7c-1.1-3.6-3.1-5.7-3.3-9.7
			c0-0.7-0.4-1.3-1.1-1.4c-6-1.7-12.3-2.3-18.3-4.4c-6.8-2.4-11.3-7.4-14.4-13.7C7.4,71.2,3.2,52,15.5,42.5c6.3-4.9,14.2-3.7,19.6,2
			c5.5,5.7,6.6,14.2,6.8,21.7c0.3,9.6-2.6,25.1,8.7,29.6c0.9,0.4,1.9-0.6,1.9-1.4c-0.2-14.6,5-32.5,18.4-40.3
			c7.4-4.3,16.3-5.8,24.7-6.5c7.5-0.6,15.2,0.4,22.7-0.3c1.2-0.1,1.8-1.2,1.3-2.3c-0.8-1.8-1.7-3.7-2.2-5.7
			c-0.5-1.7-0.5-3.4-0.1-5.1c0.4-2.5,1.9-3.6,4.2-3.4c5.9-1.1,9.7,4.8,10.3,10.1c0.1,0.6,0.4,1.3,1.1,1.4c4.7,1.1,8.6,7.9,10.9,11.6
			c1.2,1.9,2.4,3.9,3,6.1c0.8,2.6,0.3,5.3,0.7,8c0.8,5.1,5.6,8,9.4,11c2.5,2,5.1,3.9,7.9,5.4c1.1,0.6,8.7,3.4,8.7,4.1
			c-0.2,1.9,2.8,1.9,3,0c0.3-2.1-0.8-2.7-2.6-3.6c-4.1-2.1-8.2-3.2-12-5.9c-3.2-2.3-8.4-5.5-10.5-8.9c-1.4-2.4-0.9-5.3-1.2-7.9
			c-0.6-5.1-3.5-9.6-6.5-13.7c-2.5-3.4-5.7-8-10.1-9.1c0.4,0.5,0.7,1,1.1,1.4c-0.7-6.7-6.4-15.5-14.3-13.7
			c-9.3,2.1-6.2,13.4-3.5,19.3c0.4-0.8,0.9-1.5,1.3-2.3c-4.2,0.4-8.6-0.2-12.9-0.1c-5.2,0.1-10.5,0.4-15.7,1.1
			c-8,1-16.5,3.3-23.1,8.1c-12.3,9.1-17.3,26.3-17.1,41c0.6-0.5,1.3-1,1.9-1.4c-9.7-3.9-6.1-21.3-6.6-29.6c-0.5-6.9-2-14-6.4-19.6
			c-8-9.9-21.5-9.4-29,0.7C1,55.8,4.9,72.3,10.4,84c2.8,6,7,11.4,13,14.3c6.8,3.4,14.6,3.8,21.8,5.8c-0.4-0.5-0.7-1-1.1-1.4
			c0.2,3.1,1,5.8,2.3,8.6c0.8,1.7,2.2,4.4,0.9,6.1c-1,1.3-3.8,2.1-5.1,3c-4.5,3.3-7.9,8.9-5.7,14.5c1.9,4.8,7.8,10.5,13,11.4
			c7.3,1.2,16.4-3.9,23-6.7c15.6-6.4,33.2-18.9,50-9.7c4,2.2,7.6,4.9,11.2,7.7c2.8,2.2,5.5,5,9.3,5.5c5.8,0.8,12.6-3.8,16-8.2
			c3.1-4,4.3-9.6,0.5-13.4c-3-3-7.8-5.4-11.6-7.3c0,0.9,0,1.7,0,2.6c5.7-2.5,10.9-6.5,16.1-9.8c6.7-4.3,10.3-10.6,12.7-18.1
			C177.1,87.2,174.2,86.4,173.6,88.2z"/>
	</g>
</g>
<g>
	<path class="st2" d="M8.7,75.4c1.9,2.8,9.1,2.7,11.6,0.5c1-0.9,1.7-2,2.4-3c2-2.8,4.8-5.1,8.1-6c3.3-0.9,10.3,2.5,12.6,5l-0.2-8.6
		c0.2-6.2-0.2-11.6-3.2-16.5c-3-4.9-9.4-8.6-15.2-9c-8-0.4-14.7,4.2-17.5,13.9C4.9,60.1,4.8,68,8.7,75.4"/>
	<g>
		<path class="st2" d="M7.7,76.5c3.1,3.4,9.9,3.5,13.4,0.7c3-2.3,4.3-6,7.8-8c4.3-2.4,10.2,0.5,13.5,3.7c0.9,0.9,2.6,0.3,2.6-1.1
			c-0.1-6.5,0.6-13.6-1.1-19.9c-2.1-8.2-9.2-14.4-17.6-15.5C5.4,33.8,0.5,61.8,7.4,76.2c0.8,1.7,3.4,0.2,2.6-1.5
			c-6.5-13.5-0.3-42,19.8-34.2c13.4,5.2,11.8,19.6,12.1,31.4c0.9-0.4,1.7-0.7,2.6-1.1c-3.7-3.7-10.2-6.9-15.4-5
			c-3.1,1.2-5.3,3.4-7.4,5.9c-1.6,1.9-2.7,3.6-5.3,4c-2.2,0.4-5,0.2-6.6-1.5C8.5,72.9,6.4,75.1,7.7,76.5L7.7,76.5z"/>
	</g>
</g>
<g>
	<path class="st2" d="M153.1,76.3c-4.4,4.2-8.8,8.5-14.2,11.3c-4.3,2.2-9.1,3.4-13.8,4.5c-2.9,0.7-5.8,1.4-8.8,1.2
		c-3-0.2-6-1.3-7.9-3.6c-1.1-1.4-1.7-3.2-2-5c-0.9-5.5,0.9-11.3,4.6-15.4c4.4-4.8,10.9-6.9,17.2-8c5.7-1,11.5-1.3,17.2-1.5l2.8,0
		l1,5.4l1.7,7l3.4,3L153.1,76.3z"/>
	<g>
		<path class="st2" d="M152,75.2c-6.6,6.4-13,11.5-22.1,14c-4.3,1.2-9.3,2.9-13.7,2.5c-7.1-0.5-9.3-6.8-8.2-13
			c3.1-17.4,26.6-17.6,40.3-17.6c-0.5-0.4-1-0.7-1.4-1.1c0.6,3,1.2,5.9,1.9,8.9c0.9,3.8,1.6,4.5,4.7,7.1c0-0.7,0-1.4,0-2.1
			C152.9,74.4,152.5,74.8,152,75.2c-1.4,1.3,0.7,3.4,2.1,2.1c0.4-0.4,0.9-0.8,1.3-1.2c0.6-0.5,0.6-1.6,0-2.1
			c-3.2-2.8-3.2-2.9-4.2-7.2c-0.6-2.5-1.1-5-1.5-7.5c-0.1-0.6-0.8-1.1-1.4-1.1c-16.3,0-46,2.2-43.5,25.6c1.1,10.3,10.2,11.9,18.9,10
			c5.9-1.3,12.1-2.8,17.4-5.9c4.9-2.8,9-6.8,13.1-10.7C155.6,76,153.4,73.9,152,75.2z"/>
	</g>
</g>
<g>
	<path class="st2" d="M130.2,43.7c-0.3-1.9-0.7-3.8-1.6-5.5c-0.9-1.7-2.4-3.2-4.3-3.6c-0.7-0.1-1.4-0.1-1.9,0.3
		c-0.8,0.6-0.9,1.7-0.9,2.7c0,3.1,0.5,6.2,1.4,9.1c0.1,0.3,0.2,0.6,0.5,0.7c0.2,0.1,0.4,0,0.6-0.1c2.1-0.8,4.1-1.6,6.2-2.5
		L130.2,43.7z"/>
	<g>
		<path class="st2" d="M131.6,43.3c-0.6-3.4-1.5-7.1-4.6-9.2c-2.4-1.6-5.9-1.7-6.8,1.5c-0.9,3.2-0.1,8.6,1.3,11.6
			c0.5,1,1.1,1.6,2.2,1.5c2.1-0.1,4.8-1.8,6.8-2.6c0.7-0.3,1.1-0.7,1.1-1.4c0-0.4,0-0.7,0.1-1.1c0.1-1.9-2.9-1.9-3,0
			c0,0.4,0,0.7-0.1,1.1c0.4-0.5,0.7-1,1.1-1.4c-2.1,0.9-4.5,2.2-6.8,2.6c0.5,0.1,1,0.3,1.5,0.4c-1.2-1-2.5-9.6-0.8-10.2
			c1.4-0.5,3.2,2,3.7,2.9c0.8,1.6,1.1,3.4,1.4,5.2C129,46,131.9,45.2,131.6,43.3z"/>
	</g>
</g>
<g>
	<path class="st1" d="M138.3,75.5c0.1,2.4-1.4,4.8-3.6,5.9c-3,1.5-7.1,0.5-8.9-2.3s-1-7,1.8-8.9c1.6-1,3.6-1,5.4-0.7
		C135.5,69.8,138.2,73,138.3,75.5z"/>
	<g>
		<path class="st1" d="M136.8,75.5c-0.1,6.7-10.5,6.6-10.4,0c0.1-2.9,2.2-4.8,5.1-4.7c2.9,0.1,5,2.3,5.4,5.1
			c0.3,1.9,3.1,1.1,2.9-0.8c-0.6-4.5-4.7-7.4-9.1-7.3c-4.4,0.1-7.5,4-7.3,8.3c0.2,4.1,3.7,7.2,7.8,7.4c4.7,0.3,8.6-3.4,8.6-8.1
			C139.8,73.5,136.8,73.5,136.8,75.5z"/>
	</g>
</g>
</svg>
